<?xml version="1.0" encoding="UTF-8"?>
<svg version="1.1" xmlns="http://www.w3.org/2000/svg" width="1480" height="800">
<path d="M0 0 C488.4 0 976.8 0 1480 0 C1480 264 1480 528 1480 800 C991.6 800 503.2 800 0 800 C0 536 0 272 0 0 Z " fill="#FEF4EA" transform="translate(0,0)"/>
<path d="M0 0 C261.03 0 522.06 0 791 0 C791 174.24 791 348.48 791 528 C785.20468673 528 780.82134984 527.5684494 775.3125 526.3125 C774.52012939 526.13243408 773.72775879 525.95236816 772.91137695 525.7668457 C766.26391235 524.18617383 760.14354244 522.0130215 754 519 C752.93265625 518.48566406 751.8653125 517.97132813 750.765625 517.44140625 C743.00372319 513.49668385 736.44970225 508.83361129 730 503 C729.15695312 502.23945313 728.31390625 501.47890625 727.4453125 500.6953125 C701.37523617 475.92467922 684.53732218 432.96773801 680 398 C679.15832275 398.21148682 678.31664551 398.42297363 677.44946289 398.64086914 C668.65227726 400.70833216 660.49028639 401.51330509 651.4375 401.4375 C650.13119629 401.42847656 648.82489258 401.41945313 647.47900391 401.41015625 C617.07762938 400.8724093 589.91935785 390.44302816 568.53271484 368.49414062 C543.85250855 341.75651462 532.40561915 302.44521533 523.73046875 267.90234375 C522.19574591 261.80448778 520.62897389 255.71476422 519.0625 249.625 C518.88971527 248.9531366 518.71693054 248.28127319 518.53890991 247.58905029 C515.03977684 233.86385076 515.03977684 233.86385076 511.10473633 220.26000977 C509.80893669 216.06934753 508.81464787 212.05645387 508.2109375 207.70703125 C507.36923124 202.62398144 506.43876929 197.9864413 503 194 C495.99366111 189.73011123 487.17399561 189.2789592 479.2064209 188.28863525 C475.15036555 187.75803814 471.11225106 187.10818541 467.0703125 186.48046875 C457.41384486 185.00664112 447.74494979 183.65794975 438.05810547 182.39984131 C435.95666598 182.12508221 433.85577812 181.84608106 431.75537109 181.5635376 C414.16720872 179.20063611 396.55678755 177.30911578 378.890625 175.6328125 C377.28168051 175.47998117 377.28168051 175.47998117 375.64023209 175.32406235 C365.617111 174.37379167 355.59297592 173.43447435 345.56787109 172.50537109 C322.3042277 170.34543517 299.08454844 168.06378139 275.93359375 164.89453125 C274.6099091 164.71424818 274.6099091 164.71424818 273.25948334 164.53032303 C246.8140814 160.89822187 220.4601793 156.15705508 195 148 C193.72068604 147.59080322 193.72068604 147.59080322 192.41552734 147.17333984 C174.60437077 141.34075191 158.3381938 133.12922837 144 121 C143.18273437 120.34515625 142.36546875 119.6903125 141.5234375 119.015625 C126.1825615 106.25792056 115.52532638 85.74995817 113 66 C112.83826737 62.76970869 112.81007482 59.54647233 112.8125 56.3125 C112.81185547 55.42852539 112.81121094 54.54455078 112.81054688 53.63378906 C112.86200563 47.25992053 113.40869829 41.19471023 115 35 C114.32839844 34.97421875 113.65679688 34.9484375 112.96484375 34.921875 C76.17359626 32.83308159 30.52756586 22.43424837 0 1 C0 0.67 0 0.34 0 0 Z " fill="#FED9B6" transform="translate(689,0)"/>
<path d="M0 0 C1.20140625 0.43570312 2.4028125 0.87140625 3.640625 1.3203125 C11.66535396 4.49893891 18.34120785 8.53171917 25 14 C25.83015625 14.67804688 26.6603125 15.35609375 27.515625 16.0546875 C49.54879327 34.9699546 64.1123933 62.69738984 75.19384766 89.125 C76.52706566 92.22588259 77.98648352 95.26544664 79.4375 98.3125 C82.12028085 103.97757352 84.59260872 109.71291296 87 115.5 C90.1139974 122.96547671 93.37456054 130.33312788 96.87011719 137.62988281 C98.25090547 140.52631596 99.61247059 143.43160456 100.9765625 146.3359375 C112.37063953 170.46207738 125.06559617 193.09389214 143 213 C143.6909375 213.77472656 144.381875 214.54945313 145.09375 215.34765625 C160.3880642 231.55374688 180.74856495 242.77353506 199.53613281 254.3684082 C214.71118704 263.74825351 228.98023793 273.74478355 242 286 C242.67417969 286.60972656 243.34835937 287.21945312 244.04296875 287.84765625 C253.99879035 297.20732087 260.85099146 309.18353678 267.72265625 320.8581543 C270.87211549 326.19502428 274.14004714 331.2843954 277.890625 336.22265625 C279 338 279 338 279 341 C279.57234375 341.26167969 280.1446875 341.52335937 280.734375 341.79296875 C283.16798357 343.08949469 285.11389653 344.56851342 287.25 346.3125 C288.13429688 347.02921875 289.01859375 347.7459375 289.9296875 348.484375 C291.52247693 349.78940858 293.11500358 351.09477086 294.70410156 352.40429688 C303.44984887 359.61113358 312.33330883 366.57098257 321.42626953 373.33544922 C327.08889384 377.55178962 332.69018191 381.83660017 338.25 386.1875 C343.97550286 390.66674188 349.738002 395.08766274 355.5625 399.4375 C364.4114997 406.04936872 364.4114997 406.04936872 368.5 409.1875 C369.1909375 409.71730469 369.881875 410.24710938 370.59375 410.79296875 C371.0578125 411.19128906 371.521875 411.58960938 372 412 C372 412.33 372 412.66 372 413 C235.71 413 99.42 413 -41 413 C-41 275.72 -41 138.44 -41 -3 C-27.74501136 -6.31374716 -12.69553009 -4.62438992 0 0 Z " fill="#FED9B6" transform="translate(41,387)"/>
<path d="M0 0 C36.04373208 7.92033313 75.52346407 21.00652197 102.8515625 46.9921875 C104.99922678 49.06078997 104.99922678 49.06078997 107.5078125 50.9453125 C112.0283856 54.67230537 115.39118095 59.4134221 119 64 C119.71285156 64.87398438 120.42570312 65.74796875 121.16015625 66.6484375 C139.90742694 90.39724865 150.52732571 119.28250153 159 148 C159.33628418 149.13228027 159.67256836 150.26456055 160.01904297 151.43115234 C173 195.36154004 173 195.36154004 173 202 C171.45859034 202.31376521 169.91685785 202.62594465 168.375 202.9375 C167.51648437 203.11152344 166.65796875 203.28554688 165.7734375 203.46484375 C164.85820313 203.64144531 163.94296875 203.81804687 163 204 C161.65228516 204.27457031 161.65228516 204.27457031 160.27734375 204.5546875 C131.7808303 208.42668098 100.65889958 201.91033622 77.3046875 185.0546875 C37.56660613 154.06627542 26.4308251 99.01705028 14.55639648 52.82226562 C10.74995144 38.06279904 6.586732 23.43128458 1.82788086 8.94921875 C0.82483843 5.85816228 0 3.27219107 0 0 Z " fill="#FEF4EA" transform="translate(1195,194)"/>
<path d="M0 0 C44.88 0 89.76 0 136 0 C133.525 2.475 133.525 2.475 131 5 C123.46335322 13.53279487 117.16109881 22.36608081 113 33 C107.0046398 33.12442784 101.50119341 32.78781947 95.6171875 31.6796875 C94.84872498 31.54081116 94.08026245 31.40193481 93.28851318 31.2588501 C90.81533967 30.80770387 88.34504001 30.34298051 85.875 29.875 C84.60278595 29.63641266 84.60278595 29.63641266 83.30487061 29.39300537 C53.78281427 23.83608439 26.29965514 15.85558351 0 1 C0 0.67 0 0.34 0 0 Z " fill="#FEF4EA" transform="translate(693,0)"/>
<path d="M0 0 C3.77177347 0.60096671 6.72295614 1.69796325 10.11328125 3.44140625 C48.74369641 22.89049564 90.66609891 30.10646035 133.23828125 35.40625 C134.08018446 35.5116617 134.92208767 35.6170734 135.7895031 35.7256794 C155.65617296 38.1977935 175.5754295 40.05345566 195.50985718 41.88046265 C240.91320817 46.0479389 286.16604113 50.5125149 331 59 C332.19431641 59.22091309 333.38863281 59.44182617 334.61914062 59.66943359 C362.04519076 64.81469566 390.07129485 72.2293711 415 85 C416.20994629 85.60110596 416.20994629 85.60110596 417.44433594 86.21435547 C463.56178185 109.12991212 490.18172683 147.22902123 506.34741211 195.22897339 C513.14999945 215.64340985 518.88974862 236.28505667 524 257.1875 C526.85904548 268.86907682 530.30903189 280.33345066 533.97216797 291.78613281 C534.65101515 293.90877992 535.32462343 296.03311047 535.99267578 298.15917969 C547.09879608 333.45306869 562.20055818 367.36749709 596 386 C624.52352643 400.50668121 658.84957318 402.02906905 689.125 392.3125 C738.75366464 375.39642385 765.65762358 325.75752499 787.75 281.625 C788.5045458 280.0855531 789.25684587 278.54497833 790 277 C790.33 277 790.66 277 791 277 C790.49260544 281.96153583 789.47761736 285.61729339 787.11328125 290 C786.51169189 291.1230957 785.91010254 292.24619141 785.2902832 293.40332031 C784.63190919 294.6027009 783.97262626 295.80158294 783.3125 297 C782.63296829 298.24832431 781.95352612 299.49669736 781.27416992 300.74511719 C769.98615973 321.37700566 758.10260988 341.65005802 741.9375 358.88671875 C739.92783422 361.02682753 739.92783422 361.02682753 737.97265625 363.56640625 C735.03328773 367.19259751 731.55956444 370.00057007 728 373 C727.20722656 373.70382812 726.41445312 374.40765625 725.59765625 375.1328125 C699.97584498 397.24848117 669.04393005 403.04838531 636 401 C608.06072382 398.44189746 582.89300114 385.27695294 564.625 364.0625 C543.03278983 336.86054895 532.07904896 301.14487223 523.73046875 267.90234375 C504.11358173 186.8412937 504.11358173 186.8412937 459 118 C458.43023438 117.37867187 457.86046875 116.75734375 457.2734375 116.1171875 C448.97660143 107.34849345 438.37908506 101.00480111 428 95 C427.07670898 94.46439453 427.07670898 94.46439453 426.13476562 93.91796875 C413.94979837 86.9445699 401.19437087 81.74683733 388 77 C387.13342773 76.68820801 386.26685547 76.37641602 385.37402344 76.05517578 C359.65984841 66.98744149 332.63853005 61.65923945 305.73510742 57.57617188 C303.07789549 57.16627449 300.42630544 56.74168448 297.7746582 56.29882812 C284.58526395 54.11490359 271.35064408 52.57233471 258.0625 51.125 C256.9049118 50.99749359 255.74732361 50.86998718 254.55465698 50.73861694 C226.47397123 47.64736952 198.35467753 44.93232034 170.21987915 42.38320923 C44.28998468 30.96087199 44.28998468 30.96087199 0 1 C0 0.67 0 0.34 0 0 Z " fill="#838280" transform="translate(689,0)"/>
<path d="M0 0 C2.91396223 1.34400879 5.23770998 2.87455641 7.6875 4.94140625 C8.37972656 5.52027588 9.07195312 6.09914551 9.78515625 6.69555664 C10.51605469 7.31164795 11.24695313 7.92773926 12 8.5625 C17.84105322 13.42942664 23.72490101 18.14666462 29.84375 22.66015625 C33.76183095 25.56477319 37.63051328 28.53112568 41.5 31.5 C47.33790903 35.97435684 53.20170914 40.40965628 59.09375 44.8125 C62.88480428 47.66598172 66.64398559 50.55971402 70.39819336 53.46142578 C74.12903555 56.34235419 77.89597925 59.16758902 81.70703125 61.94140625 C82.34705078 62.46541016 82.34705078 62.46541016 83 63 C83 63.33 83 63.66 83 64 C46.90855608 66.96915356 46.90855608 66.96915356 38.09082031 62.53808594 C33.87138605 58.5299341 32.11588804 53.38161031 30.21484375 47.98730469 C27.89205154 42.27555118 24.27730075 37.30270446 20.875 32.1875 C19.51248465 30.0636782 18.15175588 27.93870899 16.79296875 25.8125 C11.90213911 18.2607171 6.81771555 10.83351569 1.23828125 3.76953125 C0 2 0 2 0 0 Z " fill="#FDF3E9" transform="translate(327,736)"/>
<path d="M0 0 C22.29637094 4.15695051 42.17392126 17.07097651 58.41015625 32.55078125 C60.46118633 34.49044318 62.53939918 36.33469807 64.6796875 38.171875 C69.69547873 42.53872289 74.37239667 47.22619048 79.0625 51.9375 C79.92166016 52.79279297 80.78082031 53.64808594 81.66601562 54.52929688 C86.05368861 58.92367372 90.29288683 63.38025087 94.33959961 68.09008789 C97.21520351 71.3978146 100.23875898 74.56614006 103.25 77.75 C107.58193185 82.33675138 111.86979734 86.95644131 116.109375 91.62890625 C121.96417587 98.04796897 128.04533737 104.23147071 134.18847656 110.3737793 C136.00355557 112.19105988 137.81043907 114.01623833 139.6171875 115.84179688 C146.43185985 122.6896923 153.35310431 129.07649061 161 135 C161.6604834 135.51973389 162.3209668 136.03946777 163.00146484 136.57495117 C185.95998533 154.43679274 211.94925002 164.58304478 240.19952393 170.76538086 C274.34854184 178.2749311 306.72932183 186.06466041 334 209 C343.28288323 216.71290638 352.74317442 224.131793 362.42651367 231.33569336 C368.08911363 235.55187717 373.69027169 239.83667043 379.25 244.1875 C385.63005573 249.17881928 392.06704472 254.08349468 398.55957031 258.92749023 C403.42178581 262.55677793 408.23629046 266.24196247 413 270 C412.01 270.33 411.02 270.66 410 271 C408.38452148 270.14233398 408.38452148 270.14233398 406.62109375 268.74609375 C405.9564209 268.22837402 405.29174805 267.7106543 404.60693359 267.17724609 C403.89102051 266.60312988 403.17510742 266.02901367 402.4375 265.4375 C401.68807129 264.85049316 400.93864258 264.26348633 400.16650391 263.65869141 C398.5765619 262.41230637 396.99005893 261.1615239 395.40673828 259.90673828 C391.57957527 256.87466858 387.72727605 253.87505416 383.875 250.875 C383.12500732 250.28928223 382.37501465 249.70356445 381.60229492 249.10009766 C376.87656723 245.42060168 372.09620729 241.83148285 367.25 238.3125 C355.33917727 229.66158124 343.87211083 220.43416743 332.58984375 210.98046875 C307.11261115 189.97728675 277.24097452 182.53586906 245.72021484 175.22192383 C228.72672747 171.27575789 211.97321327 167.1454548 196 160 C195.05229736 159.57944336 195.05229736 159.57944336 194.08544922 159.15039062 C177.59552024 151.72315938 163.45463008 140.96561535 150 129 C149.11054688 128.22140625 148.22109375 127.4428125 147.3046875 126.640625 C140.19262397 120.27826617 133.44386571 113.5474103 126.6875 106.8125 C126.21128204 106.33896088 125.73506409 105.86542175 125.24441528 105.37753296 C120.19853436 100.35318356 115.27040113 95.28909883 110.6340332 89.88354492 C107.77003933 86.58222822 104.7526603 83.42478732 101.75 80.25 C97.85350353 76.12429785 93.97876149 71.9831249 90.16233826 67.78300476 C83.83781807 60.83258446 77.327162 54.0869305 70.6875 47.4375 C70.14229706 46.89095764 69.59709412 46.34441528 69.03536987 45.78131104 C61.13086958 37.88100365 53.14375292 30.45367091 44 24 C43.21109375 23.39285156 42.4221875 22.78570313 41.609375 22.16015625 C29.21074615 12.86118461 14.85502182 6.21891502 0 2 C0 1.34 0 0.68 0 0 Z " fill="#82817E" transform="translate(0,529)"/>
<path d="M0 0 C0.33 0 0.66 0 1 0 C0.49260544 4.96153583 -0.52238264 8.61729339 -2.88671875 13 C-3.48830811 14.1230957 -4.08989746 15.24619141 -4.7097168 16.40332031 C-5.36809081 17.6027009 -6.02737374 18.80158294 -6.6875 20 C-7.36703171 21.24832431 -8.04647388 22.49669736 -8.72583008 23.74511719 C-20.01384027 44.37700566 -31.89739012 64.65005802 -48.0625 81.88671875 C-50.07162176 84.02609511 -50.07162176 84.02609511 -52.0234375 86.5625 C-57.45731623 93.26356784 -65.01289047 98.99993092 -72 104 C-72.66 104 -73.32 104 -74 104 C-72.8387441 100.51623231 -71.9623468 99.98490611 -69.0625 97.875 C-37.0903473 73.70587664 -17.01413561 35.45492234 0 0 Z " fill="#84827E" transform="translate(1479,277)"/>
<path d="M0 0 C2 1 2 1 2.7902832 2.99926758 C3.04124756 3.87220459 3.29221191 4.7451416 3.55078125 5.64453125 C3.8346167 6.62180176 4.11845215 7.59907227 4.41088867 8.60595703 C4.70842041 9.66411621 5.00595215 10.72227539 5.3125 11.8125 C5.62227783 12.8938623 5.93205566 13.97522461 6.2512207 15.08935547 C8.41949944 22.73412203 10.41271836 30.41316874 12.30053711 38.13134766 C13.83547922 44.40360185 15.55825579 50.60413168 17.36523438 56.80371094 C18.80919433 61.79981238 20.21565938 66.80654823 21.625 71.8125 C21.92647949 72.8749292 22.22795898 73.9373584 22.53857422 75.03198242 C24.21487888 80.99160544 25.72136471 86.94230708 27 93 C26.01 93.495 26.01 93.495 25 94 C21.06394046 82.79479222 17.92553609 71.50361245 15 60 C13.69127153 54.87402893 12.37894907 49.74899278 11.0625 44.625 C10.89155823 43.95933014 10.72061646 43.29366028 10.54449463 42.6078186 C8.31522635 33.93974407 6.02114497 25.29389882 3.5625 16.6875 C3.3157251 15.8227002 3.0689502 14.95790039 2.81469727 14.06689453 C1.65305817 9.94156255 1.65305817 9.94156255 0 6 C-0.039992 4.00039988 -0.04346799 1.99952758 0 0 Z " fill="#898A89" transform="translate(1197,205)"/>
<path d="M0 0 C8.94577311 1.8026147 17.92464059 2.7946695 27 3.6875 C27 4.3475 27 5.0075 27 5.6875 C19.05455457 6.27970711 11.72950417 5.29212101 3.9375 3.8125 C3.0091333 3.63879883 2.0807666 3.46509766 1.12426758 3.28613281 C-5.60827929 1.94864714 -5.60827929 1.94864714 -9 -0.3125 C-5.95752753 -1.83373624 -3.19925439 -0.6796126 0 0 Z " fill="#888988" transform="translate(1310,395.3125)"/>
<path d="M0 0 C1.25006836 0.26780273 1.25006836 0.26780273 2.52539062 0.54101562 C6.97363758 1.51505863 11.26956296 2.64483482 15.5625 4.1875 C15.2325 4.8475 14.9025 5.5075 14.5625 6.1875 C4.81451792 4.55567921 -4.80198155 2.37112684 -14.4375 0.1875 C-14.4375 -0.1425 -14.4375 -0.4725 -14.4375 -0.8125 C-9.38915886 -2.43333754 -5.01008218 -1.13777848 0 0 Z " fill="#8D8882" transform="translate(1038.4375,62.8125)"/>
<path d="M0 0 C7.74152536 -0.39363688 14.52058632 1.05789567 22 3 C22 3.33 22 3.66 22 4 C14.37404682 4.45755719 7.3970146 2.74536299 0 1 C0 0.67 0 0.34 0 0 Z " fill="#7E7D7B" transform="translate(1007,58)"/>
<path d="M0 0 C3.68069887 1.53643852 5.98775204 3.78150945 8.75 6.625 C9.54921875 7.44226563 10.3484375 8.25953125 11.171875 9.1015625 C12.07679688 10.04128906 12.07679688 10.04128906 13 11 C12.34 11.66 11.68 12.32 11 13 C9.16052663 11.21427748 7.32842259 9.42197551 5.5 7.625 C4.71302734 6.86316406 4.71302734 6.86316406 3.91015625 6.0859375 C2.56846819 4.76167396 1.28004185 3.38394135 0 2 C0 1.34 0 0.68 0 0 Z " fill="#888480" transform="translate(127,634)"/>
<path d="M0 0 C4.8333472 -0.08333357 9.23692563 0.04738513 14 1 C14 1.66 14 2.32 14 3 C12.04174127 3.02694851 10.08337774 3.04637218 8.125 3.0625 C7.03445313 3.07410156 5.94390625 3.08570313 4.8203125 3.09765625 C2 3 2 3 0 2 C0 1.34 0 0.68 0 0 Z " fill="#8F8F8E" transform="translate(1323,398)"/>
<path d="M0 0 C0.66 0.66 1.32 1.32 2 2 C0.27192682 2.33895656 -1.45751974 2.67091525 -3.1875 3 C-4.63189453 3.2784375 -4.63189453 3.2784375 -6.10546875 3.5625 C-8.7934206 3.96877612 -11.28771019 4.07933572 -14 4 C-12 1 -12 1 -9.25 0.3125 C-6.11076291 0.01065028 -3.14806667 -0.21464091 0 0 Z " fill="#929391" transform="translate(1364,397)"/>
<path d="M0 0 C0.66 0.33 1.32 0.66 2 1 C-2.10037573 6.24972347 -6.52964787 10.20962911 -12 14 C-12.33 13.34 -12.66 12.68 -13 12 C-12.48050781 11.55269531 -11.96101563 11.10539062 -11.42578125 10.64453125 C-7.47320346 7.21798969 -3.64172918 3.75553321 0 0 Z " fill="#797A79" transform="translate(1429,358)"/>
<path d="M0 0 C2.06242617 -0.02717692 4.12495703 -0.0464758 6.1875 -0.0625 C7.33605469 -0.07410156 8.48460937 -0.08570312 9.66796875 -0.09765625 C12.59300586 -0.01192832 15.16316291 0.32150977 18 1 C14.72660644 3.18226237 14.33398617 3.210226 10.6875 2.6875 C9.89859375 2.57921875 9.1096875 2.4709375 8.296875 2.359375 C2.65909091 1.47727273 2.65909091 1.47727273 0 1 C0 0.67 0 0.34 0 0 Z " fill="#8E8E8D" transform="translate(773,30)"/>
<path d="M0 0 C4.43458973 1.3937282 6.87378374 3.60582235 10 7 C6.65580848 7 5.93159679 6.52480606 3.3125 4.625 C2.68988281 4.18414063 2.06726563 3.74328125 1.42578125 3.2890625 C0.95527344 2.86367188 0.48476563 2.43828125 0 2 C0 1.34 0 0.68 0 0 Z " fill="#868786" transform="translate(361,761)"/>
<path d="M0 0 C2.12890625 0.13671875 2.12890625 0.13671875 4.5625 0.6875 C5.36816406 0.85636719 6.17382812 1.02523437 7.00390625 1.19921875 C7.66261719 1.46347656 8.32132813 1.72773437 9 2 C9.33 2.99 9.66 3.98 10 5 C4.06 3.515 4.06 3.515 -2 2 C-1.34 1.34 -0.68 0.68 0 0 Z " fill="#8D8882" transform="translate(219,695)"/>
<path d="M0 0 C2.2528047 2.2528047 2.5496379 3.39092488 3.25 6.4375 C3.44078125 7.21996094 3.6315625 8.00242188 3.828125 8.80859375 C4 11 4 11 2 14 C0.66416101 9.15758367 -0.25328119 5.06562383 0 0 Z " fill="#848685" transform="translate(1207,240)"/>
<path d="M0 0 C0.99 0.495 0.99 0.495 2 1 C2.75 4.375 2.75 4.375 3 8 C2.34 8.99 1.68 9.98 1 11 C-0.17571451 7.32589215 -0.07366746 3.83070817 0 0 Z " fill="#90908F" transform="translate(1210,251)"/>
<path d="M0 0 C2 1 2 1 2.6328125 2.84765625 C2.79523438 3.57855469 2.95765625 4.30945313 3.125 5.0625 C3.29257813 5.79597656 3.46015625 6.52945313 3.6328125 7.28515625 C3.75398438 7.85105469 3.87515625 8.41695312 4 9 C3.01 8.67 2.02 8.34 1 8 C-0.35439668 5.29120665 -0.06501451 2.99066732 0 0 Z " fill="#8E8E8D" transform="translate(1197,205)"/>
</svg>
