<svg width="29" height="29" viewBox="0 0 29 29" fill="none" xmlns="http://www.w3.org/2000/svg">
<rect x="1" y="1" width="27" height="27" rx="6" fill="#FF7D00" fill-opacity="0.5" stroke="#FF7D00" stroke-width="2"/>
<path d="M11.2122 21.6121L24.6378 7.88727C24.7627 7.7595 24.832 7.58736 24.832 7.409C24.832 7.23064 24.7627 7.0585 24.6378 6.93074C24.5126 6.80278 24.3417 6.72986 24.1622 6.72986C23.9828 6.72986 23.8118 6.80278 23.6867 6.93073L10.7366 20.1695L5.33845 14.651C5.21328 14.5231 5.04234 14.4501 4.8629 14.4501C4.68346 14.4501 4.51251 14.5231 4.38735 14.651C4.26237 14.7788 4.19312 14.9509 4.19312 15.1293C4.19312 15.3076 4.26237 15.4798 4.38735 15.6076L10.261 21.6121C10.3229 21.6755 10.3967 21.7261 10.4784 21.7607C10.5601 21.7953 10.6478 21.8132 10.7366 21.8132C10.8254 21.8132 10.9131 21.7953 10.9948 21.7607C11.0765 21.7261 11.1503 21.6755 11.2122 21.6121Z" fill="white" stroke="white" stroke-width="0.5"/>
</svg>
